<svg width="19" height="19" viewBox="0 0 19 19" fill="none" xmlns="http://www.w3.org/2000/svg">
<path d="M7.72701 1.0422C8.53126 -0.3474 10.4687 -0.347402 11.273 1.0422L12.9401 3.92271C13.2291 4.42193 13.7003 4.77797 14.2462 4.90943L17.396 5.66798C18.9155 6.03391 19.5142 7.94993 18.4918 9.17469L16.3723 11.7135C16.005 12.1535 15.825 12.7296 15.8735 13.31L16.153 16.6593C16.2879 18.2751 14.7204 19.4593 13.2842 18.8266L10.3072 17.5152C9.79127 17.2879 9.20873 17.2879 8.69279 17.5152L5.71576 18.8266C4.27959 19.4593 2.71214 18.2751 2.847 16.6593L3.12655 13.31C3.17499 12.7296 2.99498 12.1535 2.62766 11.7135L0.508213 9.17469C-0.514244 7.94993 0.0844668 6.03391 1.60398 5.66798L4.75378 4.90943C5.29966 4.77797 5.77094 4.42193 6.05987 3.92271L7.72701 1.0422Z" fill="#FABA50"/>
</svg>
